<svg xmlns="http://www.w3.org/2000/svg" xmlns:xlink="http://www.w3.org/1999/xlink" width="500" zoomAndPan="magnify" viewBox="0 0 375 374.999991" height="500" preserveAspectRatio="xMidYMid meet" version="1.0"><defs><g/><clipPath id="e77bc46e71"><path d="M 124.558594 88 L 250.558594 88 L 250.558594 233.5 L 124.558594 233.5 Z M 124.558594 88 " clip-rule="nonzero"/></clipPath></defs><g clip-path="url(#e77bc46e71)"><path fill="#7ed957" d="M 249.921875 189.859375 L 244.757812 190.933594 L 238.777344 192.179688 L 238.777344 135.953125 L 213.4375 135.953125 L 213.4375 197.464844 L 201.652344 199.929688 L 200.171875 200.25 L 200.171875 125.097656 L 237.703125 125.097656 L 187.222656 88 L 136.773438 125.097656 L 174.828125 125.097656 L 174.828125 205.503906 L 173.347656 205.824219 L 161.5625 208.292969 L 161.5625 135.953125 L 136.222656 135.953125 L 136.222656 213.777344 C 133.929688 214.617188 131.925781 215.808594 130.242188 217.289062 C 126.703125 220.425781 124.582031 224.71875 124.582031 229.308594 C 124.582031 230.585938 124.757812 231.859375 125.078125 233.136719 L 130.242188 232.066406 L 136.222656 230.816406 L 158.515625 226.171875 L 161.535156 225.535156 L 173.320312 223.066406 L 174.800781 222.746094 L 180.082031 221.644531 L 201.59375 217.144531 L 216.425781 214.066406 L 235.84375 210.003906 C 239.328125 209.277344 242.347656 207.738281 244.699219 205.648438 C 248.238281 202.542969 250.359375 198.21875 250.359375 193.632812 C 250.417969 192.414062 250.242188 191.136719 249.921875 189.859375 Z M 249.921875 189.859375 " fill-opacity="1" fill-rule="nonzero"/></g><g fill="#7ed957" fill-opacity="1"><g transform="translate(127.700576, 283.498225)"><g><path d="M 1.019531 0 L 1.898438 0 L 1.898438 -2.949219 L 4.769531 -2.949219 L 4.769531 -3.757812 L 1.898438 -3.757812 L 1.898438 -6.179688 L 5.027344 -6.179688 L 5.027344 -7 L 1.019531 -7 Z M 1.019531 0 "/></g></g></g><g fill="#7ed957" fill-opacity="1"><g transform="translate(133.27838, 283.498225)"><g><path d="M 1.019531 0 L 1.898438 0 L 1.898438 -7 L 1.019531 -7 Z M 1.019531 0 "/></g></g></g><g fill="#7ed957" fill-opacity="1"><g transform="translate(136.19723, 283.498225)"><g><path d="M 1.019531 0 L 1.890625 0 L 1.890625 -5.480469 L 5.757812 0 L 6.578125 0 L 6.578125 -7 L 5.71875 -7 L 5.71875 -1.519531 L 1.847656 -7 L 1.019531 -7 Z M 1.019531 0 "/></g></g></g><g fill="#7ed957" fill-opacity="1"><g transform="translate(143.79423, 283.498225)"><g><path d="M 0.171875 0 L 1.109375 0 L 1.75 -1.589844 L 5.160156 -1.589844 L 5.820312 0 L 6.75 0 L 3.867188 -7 L 3.050781 -7 Z M 2.089844 -2.410156 L 3.460938 -5.769531 L 4.828125 -2.410156 Z M 2.089844 -2.410156 "/></g></g></g><g fill="#7ed957" fill-opacity="1"><g transform="translate(150.711496, 283.498225)"><g><path d="M 1.019531 0 L 1.890625 0 L 1.890625 -5.480469 L 5.757812 0 L 6.578125 0 L 6.578125 -7 L 5.71875 -7 L 5.71875 -1.519531 L 1.847656 -7 L 1.019531 -7 Z M 1.019531 0 "/></g></g></g><g fill="#7ed957" fill-opacity="1"><g transform="translate(158.308496, 283.498225)"><g><path d="M 4.117188 0.128906 C 5.820312 0.128906 7.199219 -0.898438 7.617188 -2.460938 L 6.6875 -2.460938 C 6.328125 -1.410156 5.339844 -0.75 4.148438 -0.75 C 2.589844 -0.75 1.480469 -1.878906 1.480469 -3.5 C 1.480469 -5.117188 2.589844 -6.25 4.148438 -6.25 C 5.308594 -6.25 6.257812 -5.628906 6.617188 -4.617188 L 7.558594 -4.617188 C 7.097656 -6.160156 5.769531 -7.128906 4.117188 -7.128906 C 2.058594 -7.128906 0.578125 -5.609375 0.578125 -3.5 C 0.578125 -1.390625 2.058594 0.128906 4.117188 0.128906 Z M 4.117188 0.128906 "/></g></g></g><g fill="#7ed957" fill-opacity="1"><g transform="translate(166.465283, 283.498225)"><g><path d="M 1.019531 0 L 5.378906 0 L 5.378906 -0.820312 L 1.898438 -0.820312 L 1.898438 -3.160156 L 5.019531 -3.160156 L 5.019531 -3.96875 L 1.898438 -3.96875 L 1.898438 -6.179688 L 5.269531 -6.179688 L 5.269531 -7 L 1.019531 -7 Z M 1.019531 0 "/></g></g></g><g fill="#7ed957" fill-opacity="1"><g transform="translate(172.492909, 283.498225)"><g/></g></g><g fill="#7ed957" fill-opacity="1"><g transform="translate(174.971928, 283.498225)"><g><path d="M 4.117188 0.128906 C 5.820312 0.128906 7.199219 -0.898438 7.617188 -2.460938 L 6.6875 -2.460938 C 6.328125 -1.410156 5.339844 -0.75 4.148438 -0.75 C 2.589844 -0.75 1.480469 -1.878906 1.480469 -3.5 C 1.480469 -5.117188 2.589844 -6.25 4.148438 -6.25 C 5.308594 -6.25 6.257812 -5.628906 6.617188 -4.617188 L 7.558594 -4.617188 C 7.097656 -6.160156 5.769531 -7.128906 4.117188 -7.128906 C 2.058594 -7.128906 0.578125 -5.609375 0.578125 -3.5 C 0.578125 -1.390625 2.058594 0.128906 4.117188 0.128906 Z M 4.117188 0.128906 "/></g></g></g><g fill="#7ed957" fill-opacity="1"><g transform="translate(183.128715, 283.498225)"><g><path d="M 4.199219 0.128906 C 6.328125 0.128906 7.828125 -1.371094 7.828125 -3.5 C 7.828125 -5.628906 6.328125 -7.128906 4.199219 -7.128906 C 2.070312 -7.128906 0.578125 -5.628906 0.578125 -3.5 C 0.578125 -1.371094 2.070312 0.128906 4.199219 0.128906 Z M 1.480469 -3.5 C 1.480469 -5.128906 2.589844 -6.25 4.199219 -6.25 C 5.808594 -6.25 6.917969 -5.128906 6.917969 -3.5 C 6.917969 -1.871094 5.808594 -0.75 4.199219 -0.75 C 2.589844 -0.75 1.480469 -1.871094 1.480469 -3.5 Z M 1.480469 -3.5 "/></g></g></g><g fill="#7ed957" fill-opacity="1"><g transform="translate(191.525405, 283.498225)"><g><path d="M 1.019531 0 L 1.890625 0 L 1.890625 -5.480469 L 5.757812 0 L 6.578125 0 L 6.578125 -7 L 5.71875 -7 L 5.71875 -1.519531 L 1.847656 -7 L 1.019531 -7 Z M 1.019531 0 "/></g></g></g><g fill="#7ed957" fill-opacity="1"><g transform="translate(199.122405, 283.498225)"><g><path d="M 4.117188 0.128906 C 5.820312 0.128906 7.199219 -0.898438 7.617188 -2.460938 L 6.6875 -2.460938 C 6.328125 -1.410156 5.339844 -0.75 4.148438 -0.75 C 2.589844 -0.75 1.480469 -1.878906 1.480469 -3.5 C 1.480469 -5.117188 2.589844 -6.25 4.148438 -6.25 C 5.308594 -6.25 6.257812 -5.628906 6.617188 -4.617188 L 7.558594 -4.617188 C 7.097656 -6.160156 5.769531 -7.128906 4.117188 -7.128906 C 2.058594 -7.128906 0.578125 -5.609375 0.578125 -3.5 C 0.578125 -1.390625 2.058594 0.128906 4.117188 0.128906 Z M 4.117188 0.128906 "/></g></g></g><g fill="#7ed957" fill-opacity="1"><g transform="translate(207.279192, 283.498225)"><g><path d="M 3.640625 0.121094 C 5.328125 0.121094 6.347656 -0.988281 6.347656 -2.847656 L 6.347656 -7 L 5.46875 -7 L 5.46875 -2.910156 C 5.46875 -1.480469 4.839844 -0.738281 3.640625 -0.738281 C 2.449219 -0.738281 1.808594 -1.480469 1.808594 -2.910156 L 1.808594 -7 L 0.941406 -7 L 0.941406 -2.847656 C 0.941406 -0.988281 1.949219 0.121094 3.640625 0.121094 Z M 3.640625 0.121094 "/></g></g></g><g fill="#7ed957" fill-opacity="1"><g transform="translate(214.56632, 283.498225)"><g><path d="M 1.019531 0 L 5.296875 0 L 5.296875 -0.839844 L 1.898438 -0.839844 L 1.898438 -7 L 1.019531 -7 Z M 1.019531 0 "/></g></g></g><g fill="#7ed957" fill-opacity="1"><g transform="translate(220.174108, 283.498225)"><g><path d="M 2.710938 0 L 3.589844 0 L 3.589844 -6.160156 L 5.949219 -6.160156 L 5.949219 -7 L 0.339844 -7 L 0.339844 -6.160156 L 2.710938 -6.160156 Z M 2.710938 0 "/></g></g></g><g fill="#7ed957" fill-opacity="1"><g transform="translate(226.471619, 283.498225)"><g><path d="M 0.171875 0 L 1.109375 0 L 1.75 -1.589844 L 5.160156 -1.589844 L 5.820312 0 L 6.75 0 L 3.867188 -7 L 3.050781 -7 Z M 2.089844 -2.410156 L 3.460938 -5.769531 L 4.828125 -2.410156 Z M 2.089844 -2.410156 "/></g></g></g><g fill="#7ed957" fill-opacity="1"><g transform="translate(233.388886, 283.498225)"><g><path d="M 1.019531 0 L 1.890625 0 L 1.890625 -5.480469 L 5.757812 0 L 6.578125 0 L 6.578125 -7 L 5.71875 -7 L 5.71875 -1.519531 L 1.847656 -7 L 1.019531 -7 Z M 1.019531 0 "/></g></g></g><g fill="#7ed957" fill-opacity="1"><g transform="translate(240.985886, 283.498225)"><g><path d="M 2.710938 0 L 3.589844 0 L 3.589844 -6.160156 L 5.949219 -6.160156 L 5.949219 -7 L 0.339844 -7 L 0.339844 -6.160156 L 2.710938 -6.160156 Z M 2.710938 0 "/></g></g></g><g fill="#ffffff" fill-opacity="1"><g transform="translate(111.942785, 267.798206)"><g><path d="M 2.351562 0 L 11.5625 0 C 15.539062 0 18.226562 -2.183594 18.226562 -5.488281 C 18.226562 -7.585938 17.132812 -9.265625 15.285156 -10.078125 C 16.769531 -10.945312 17.636719 -12.488281 17.636719 -14.335938 C 17.636719 -17.554688 15.089844 -19.597656 11.113281 -19.597656 L 2.351562 -19.597656 Z M 6.746094 -3.527344 L 6.746094 -8.230469 L 10.890625 -8.230469 C 12.65625 -8.230469 13.664062 -7.363281 13.664062 -5.878906 C 13.664062 -4.394531 12.65625 -3.527344 10.890625 -3.527344 Z M 6.746094 -11.617188 L 6.746094 -16.070312 L 10.441406 -16.070312 C 12.152344 -16.070312 13.101562 -15.285156 13.101562 -13.859375 C 13.101562 -12.429688 12.152344 -11.617188 10.441406 -11.617188 Z M 6.746094 -11.617188 "/></g></g></g><g fill="#ffffff" fill-opacity="1"><g transform="translate(131.232156, 267.798206)"><g><path d="M 11.648438 0.390625 C 17.777344 0.390625 22.117188 -3.808594 22.117188 -9.800781 C 22.117188 -15.789062 17.777344 -19.988281 11.648438 -19.988281 C 5.515625 -19.988281 1.203125 -15.789062 1.203125 -9.800781 C 1.203125 -3.808594 5.515625 0.390625 11.648438 0.390625 Z M 5.738281 -9.800781 C 5.738281 -13.328125 8.175781 -15.761719 11.648438 -15.761719 C 15.148438 -15.761719 17.554688 -13.328125 17.554688 -9.800781 C 17.554688 -6.269531 15.148438 -3.835938 11.648438 -3.835938 C 8.175781 -3.835938 5.738281 -6.269531 5.738281 -9.800781 Z M 5.738281 -9.800781 "/></g></g></g><g fill="#ffffff" fill-opacity="1"><g transform="translate(154.55297, 267.798206)"><g><path d="M 2.351562 0 L 6.804688 0 L 6.804688 -6.101562 L 9.742188 -6.101562 L 13.242188 0 L 18.394531 0 L 14.335938 -6.804688 C 16.6875 -7.839844 18.058594 -9.96875 18.058594 -12.851562 C 18.058594 -17.023438 15.203125 -19.597656 10.722656 -19.597656 L 2.351562 -19.597656 Z M 6.746094 -9.855469 L 6.746094 -15.789062 L 10.136719 -15.789062 C 12.320312 -15.789062 13.550781 -14.726562 13.550781 -12.824219 C 13.550781 -10.917969 12.320312 -9.855469 10.136719 -9.855469 Z M 6.746094 -9.855469 "/></g></g></g><g fill="#ffffff" fill-opacity="1"><g transform="translate(174.262281, 267.798206)"><g><path d="M 11.339844 0.390625 C 16.492188 0.390625 20.496094 -2.742188 21.472656 -7.503906 L 16.882812 -7.503906 C 16.070312 -5.261719 14 -3.835938 11.421875 -3.835938 C 8.089844 -3.835938 5.738281 -6.269531 5.738281 -9.800781 C 5.738281 -13.328125 8.121094 -15.761719 11.449219 -15.761719 C 13.941406 -15.761719 15.988281 -14.417969 16.742188 -12.261719 L 21.335938 -12.261719 C 20.214844 -16.964844 16.292969 -19.988281 11.3125 -19.988281 C 5.375 -19.988281 1.203125 -15.789062 1.203125 -9.800781 C 1.203125 -3.808594 5.375 0.390625 11.339844 0.390625 Z M 11.339844 0.390625 "/></g></g></g><g fill="#ffffff" fill-opacity="1"><g transform="translate(196.855194, 267.798206)"><g><path d="M 2.351562 0 L 15.539062 0 L 15.539062 -3.78125 L 6.777344 -3.78125 L 6.777344 -8.0625 L 14.476562 -8.0625 L 14.476562 -11.785156 L 6.777344 -11.785156 L 6.777344 -15.847656 L 15.230469 -15.847656 L 15.230469 -19.597656 L 2.351562 -19.597656 Z M 2.351562 0 "/></g></g></g><g fill="#ffffff" fill-opacity="1"><g transform="translate(213.820876, 267.798206)"><g><path d="M 2.351562 0 L 15.371094 0 L 15.371094 -4.171875 L 6.804688 -4.171875 L 6.804688 -19.597656 L 2.351562 -19.597656 Z M 2.351562 0 "/></g></g></g><g fill="#ffffff" fill-opacity="1"><g transform="translate(229.946676, 267.798206)"><g><path d="M 2.351562 0 L 15.371094 0 L 15.371094 -4.171875 L 6.804688 -4.171875 L 6.804688 -19.597656 L 2.351562 -19.597656 Z M 2.351562 0 "/></g></g></g><g fill="#ffffff" fill-opacity="1"><g transform="translate(246.072476, 267.798206)"><g><path d="M 2.351562 0 L 15.539062 0 L 15.539062 -3.78125 L 6.777344 -3.78125 L 6.777344 -8.0625 L 14.476562 -8.0625 L 14.476562 -11.785156 L 6.777344 -11.785156 L 6.777344 -15.847656 L 15.230469 -15.847656 L 15.230469 -19.597656 L 2.351562 -19.597656 Z M 2.351562 0 "/></g></g></g></svg>