<?xml version="1.0" encoding="UTF-8"?>
<svg xmlns="http://www.w3.org/2000/svg" xmlns:xlink="http://www.w3.org/1999/xlink" viewBox="0 0 1471.836 639.172">
  <defs>
    <style>
      .cls-1 {
        clip-path: url(#clippath);
      }

      .cls-2 {
        fill: none;
      }

      .cls-2, .cls-3, .cls-4, .cls-5 {
        stroke-width: 0px;
      }

      .cls-3 {
        fill: #bb2b29;
      }

      .cls-4 {
        fill: #bc2c2a;
      }

      .cls-5 {
        fill: #231f20;
      }
    </style>
    <clipPath id="clippath">
      <rect class="cls-2" x="1012.527" y="491.356" width="147.816" height="147.816"/>
    </clipPath>
  </defs>
  <g id="Layer_6" data-name="Layer 6">
    <g>
      <path class="cls-5" d="M319.83,304.681h.201v-157.817h-115.547l-44.276,173.12-44.586-173.12H0v284.518h72v-216.977l55.375,216.977h65.179l55.475-216.977v216.977h72v-4.532c-12.768-.119-23.374-2.243-31.837-6.347-8.728-4.25-15.814-10.962-21.24-20.155-5.426-9.184-8.135-20.684-8.135-34.491,0-19.288,5.372-34.308,16.115-45.061,10.752-10.743,25.718-16.115,44.897-16.115ZM292.343,279.045h20.957v20.155h-20.957v-20.155ZM319.748,332.323c-7.36,0-13.269,2.608-17.729,7.816-4.46,5.216-6.694,13.844-6.694,25.873,0,11.929,2.216,20.501,6.657,25.718,4.423,5.198,10.433,7.807,18.048,7.816v-67.213c-.091-.009-.192-.009-.283-.009Z"/>
      <path class="cls-5" d="M326.524,279.045v20.155h21.194v-20.155h-21.194ZM365.292,320.513c-10.606-10.515-25.69-15.795-45.261-15.832v27.651c7.56.055,13.543,2.626,17.975,7.688,4.487,5.134,6.73,13.26,6.73,24.386,0,13.215-2.152,22.38-6.448,27.478-4.295,5.107-10.369,7.661-18.212,7.661h-.046v27.305c.41.018.83.018,1.249.018,13.114,0,24.058-2.462,32.849-7.378,8.782-4.916,15.494-11.792,20.145-20.629,4.651-8.837,6.977-20.164,6.977-33.971,0-19.024-5.326-33.816-15.96-44.377Z"/>
      <path class="cls-5" d="M437.429,395.76v-89.063h-36.515v118.155h93.496v-29.092h-56.98Z"/>
      <path class="cls-5" d="M547.522,395.76v-89.063h-36.506v118.155h93.496v-29.092h-56.989Z"/>
      <path class="cls-5" d="M717.223,368.92c-3.137-5.216-8.162-9.585-15.066-13.105-6.913-3.511-18.34-6.995-34.299-10.433-6.448-1.341-10.533-2.791-12.248-4.35-1.778-1.505-2.663-3.201-2.663-5.08,0-2.581,1.076-4.77,3.228-6.566,2.143-1.806,5.344-2.709,9.585-2.709,5.162,0,9.202,1.213,12.129,3.63,2.937,2.417,4.852,6.293,5.764,11.609l34.418-2.015c-1.505-12.248-6.22-21.185-14.145-26.803-7.925-5.609-19.434-8.418-34.536-8.418-12.303,0-21.988,1.541-29.056,4.633-7.068,3.092-12.357,7.332-15.877,12.731-3.52,5.399-5.28,11.135-5.28,17.209,0,9.247,3.438,16.844,10.314,22.808,6.822,5.964,18.249,10.752,34.254,14.345,9.785,2.152,16.014,4.441,18.705,6.858,2.681,2.417,4.031,5.153,4.031,8.217,0,3.228-1.414,6.056-4.232,8.509-2.827,2.444-6.84,3.666-12.056,3.666-6.986,0-12.357-2.389-16.115-7.177-2.316-2.955-3.839-7.25-4.596-12.895l-34.737,2.18c1.021,11.929,5.399,21.76,13.142,29.493,7.734,7.743,21.65,11.609,41.75,11.609,11.445,0,20.921-1.651,28.445-4.961,7.524-3.301,13.379-8.153,17.574-14.546,4.195-6.393,6.284-13.379,6.284-20.957,0-6.448-1.569-12.275-4.715-17.483Z"/>
      <path class="cls-5" d="M732.015,306.696v29.174h37.236v88.981h36.516v-88.981h37.236v-29.174h-110.987Z"/>
      <path class="cls-5" d="M1053.028,307.663h-39.826l-44.413,118.155h37.282l5.755-19.507h41.449l5.919,19.507h38.23l-44.395-118.155ZM1019.76,380.767l12.904-42.48,13.041,42.48h-25.946Z"/>
      <path class="cls-5" d="M952.044,390.575c-.857-1.724-2.563-4.168-5.107-7.341-2.554-3.174-4.505-5.244-5.846-6.211-1.988-1.459-5.153-2.909-9.503-4.359,5.435-1.24,9.704-2.791,12.822-4.678,4.888-2.955,8.737-6.812,11.537-11.564,2.791-4.751,4.186-10.406,4.186-16.963,0-7.524-1.824-13.908-5.472-19.142-3.657-5.244-8.472-8.828-14.437-10.761-5.964-1.933-14.582-2.9-25.864-2.9h-60.856v118.155h36.67v-47.961h3.228c3.329,0,6.311.921,8.946,2.745,1.933,1.395,4.131,4.432,6.603,9.111l19.516,36.105h41.258l-17.683-34.236ZM921.164,349.208c-1.532,1.988-3.502,3.228-5.919,3.712-4.788,1.076-8.007,1.605-9.676,1.605h-15.394v-24.012h16.042c6.657,0,11.199,1.021,13.625,3.064,2.417,2.034,3.621,4.97,3.621,8.782,0,2.581-.766,4.861-2.298,6.849Z"/>
      <path class="cls-5" d="M1183.935,306.696v65.37l-44.486-65.37h-34.099v118.155h34.336v-64.878l44.249,64.878h34.418v-118.155h-34.418Z"/>
      <path class="cls-5" d="M1348.92,342.482c-1.933-7.205-5.052-13.515-9.348-18.942-4.295-5.426-9.74-9.594-16.324-12.494-6.575-2.9-15.221-4.35-25.909-4.35h-54.244v118.155h54.244c6.502,0,13.752-1.076,21.76-3.228,5.855-1.55,11.336-4.678,16.443-9.384,5.107-4.706,9.092-10.533,11.974-17.492,2.873-6.958,4.305-16.753,4.305-29.375,0-8.062-.967-15.695-2.9-22.891ZM1312.414,386.604c-1.833,4.222-4.359,7.177-7.578,8.873-3.228,1.687-8.655,2.535-16.279,2.535h-8.946v-64.559h9.101c9.457,0,16.233,2.307,20.31,6.931,4.086,4.624,6.128,13.187,6.128,25.709,0,9.457-.912,16.297-2.736,20.51Z"/>
      <path class="cls-5" d="M1467.122,368.92c-3.146-5.216-8.171-9.585-15.075-13.105-6.904-3.511-18.331-6.995-34.29-10.433-6.448-1.341-10.533-2.791-12.257-4.35-1.769-1.505-2.654-3.201-2.654-5.08,0-2.581,1.076-4.77,3.219-6.566,2.152-1.806,5.353-2.709,9.594-2.709,5.162,0,9.202,1.213,12.129,3.63,2.928,2.417,4.852,6.293,5.764,11.609l34.418-2.015c-1.505-12.248-6.22-21.185-14.145-26.803-7.925-5.609-19.443-8.418-34.536-8.418-12.312,0-21.997,1.541-29.056,4.633-7.068,3.092-12.366,7.332-15.877,12.731-3.52,5.399-5.28,11.135-5.28,17.209,0,9.247,3.438,16.844,10.314,22.808,6.822,5.964,18.239,10.752,34.254,14.345,9.776,2.152,16.014,4.441,18.705,6.858,2.681,2.417,4.022,5.153,4.022,8.217,0,3.228-1.404,6.056-4.232,8.509-2.818,2.444-6.831,3.666-12.047,3.666-6.986,0-12.357-2.389-16.115-7.177-2.316-2.955-3.849-7.25-4.596-12.895l-34.737,2.18c1.021,11.929,5.399,21.76,13.132,29.493,7.743,7.743,21.659,11.609,41.75,11.609,11.445,0,20.93-1.651,28.454-4.961,7.524-3.301,13.379-8.153,17.574-14.546,4.186-6.393,6.283-13.379,6.283-20.957,0-6.448-1.569-12.275-4.715-17.483Z"/>
    </g>
  </g>
  <g id="Layer_5" data-name="Layer 5">
    <g>
      <path class="cls-3" d="M1355.046,207.976c7.024-9.433,21.714-31.853,24.508-64.011,2.514-28.933-5.855-51.332-10.656-61.946-9.311,1.856-20.038,3.411-31.967,4.13-1.762.106-20.782,1.183-40.492-1.032-31.362-3.526-56.602-14.504-73.525-21.681-36.969-15.678-79.194-33.585-115.082-44.395-43.619-13.139-78.993-16.131-96.967-17.551-86.957-6.87-153.931,11.935-172.623,17.551-62.915,18.904-109.606,47.88-139.59,70.206,69.041-26.734,129.128-38.093,171.558-43.362,41.878-5.201,86.294-10.401,143.852-2.065,45.397,6.575,79.813,18.795,125.738,35.103,42.667,15.15,77.405,30.492,102.295,42.33,28.77,2.753,57.541,5.506,86.311,8.259,5.906,5.215,14.998,14.65,21.312,28.908,9.647,21.786,6.919,41.53,5.328,49.557Z"/>
      <path class="cls-3" d="M1039.334,179.99c-101.42,27.348-184.858,34.598-240.819,36.135-89.613,2.462-138.257-8.912-161.967-15.486-39.586-10.975-48.096-24.414-72.459-25.811-49.016-2.81-117.098-9.167-226.967,66.076,69.433-31.042,125.719-36.357,165.164-35.103,34.54,1.099,49.258,7.015,115.082,17.551,70.327,11.257,132.551,17.153,157.705,18.584,54.951,3.126,144.808-3.005,264.262-61.946Z"/>
      <path class="cls-3" d="M1152.09,122.225c-48.884,0-88.504,38.387-88.504,85.751s39.619,85.751,88.504,85.751,88.504-38.387,88.504-85.751-39.619-85.751-88.504-85.751ZM1152.09,271.589c-36.258,0-65.655-28.482-65.655-63.613s29.397-63.613,65.655-63.613,65.655,28.482,65.655,63.613-29.397,63.613-65.655,63.613Z"/>
    </g>
  </g>
  <g id="Layer_4" data-name="Layer 4">
    <rect class="cls-5" y="443.102" width="1471.836" height="5"/>
  </g>
  <g id="Layer_3" data-name="Layer 3">
    <g>
      <path class="cls-5" d="M123.956,530.03c-1.934-6.875-4.512-13.965-6.875-17.832-3.438-5.801-5.586-7.305-17.402-7.305h-21.484v104.629c0,16.758,1.719,19.121,22.129,20.41v6.016h-62.52v-6.016c19.98-1.289,21.699-3.438,21.699-20.41v-104.629h-19.551c-11.816,0-15.254,1.289-18.906,7.734-2.578,4.297-4.297,9.453-7.09,17.402h-6.445c1.289-13.105,2.578-26.641,3.223-38.672h4.941c3.223,5.156,5.586,4.941,11.602,4.941h85.078c6.016,0,7.734-.859,10.957-4.941h5.156c0,10.098.859,25.566,1.934,38.027l-6.445.645Z"/>
      <path class="cls-5" d="M275.422,637.666c-2.793,0-5.156-.215-7.949-.43-15.684-1.074-24.062-5.156-33.516-18.477-7.949-10.957-15.684-24.492-22.559-35.449-4.297-6.875-7.09-8.164-18.047-8.164h-7.52v33.73c0,18.262,2.363,19.336,19.551,21.055v6.016h-57.363v-6.016c17.832-1.934,19.336-2.793,19.336-21.055v-85.723c0-18.262-2.363-18.906-19.336-20.84v-6.016h54.785c15.684,0,26.211,1.934,34.375,7.305,8.809,5.586,14.609,15.254,14.609,28.359,0,18.477-11.816,30.078-27.715,36.953,3.867,6.66,13.105,21.055,19.551,30.723,7.949,11.387,12.031,16.758,16.973,22.129,5.801,6.23,10.742,8.594,15.684,9.883l-.859,6.016ZM196.145,567.842c11.172,0,18.262-1.719,23.633-6.23,8.379-6.23,11.816-14.824,11.816-26.426,0-22.988-15.254-31.367-31.797-31.367-6.23,0-9.883.859-11.387,2.148-1.934,1.504-2.578,3.652-2.578,9.238v52.637h10.312Z"/>
      <path class="cls-5" d="M367.377,635.948v-6.016c13.965-1.719,15.684-3.867,12.676-12.031-2.793-8.379-7.09-19.121-11.602-32.656h-46.406c-3.438,9.668-6.66,18.047-9.668,26.855-4.727,13.965-1.719,15.684,15.898,17.832v6.016h-49.629v-6.016c13.535-1.719,16.973-3.223,24.492-22.559l44.473-112.793,6.875-1.289c13.535,36.738,28.359,77.344,41.895,114.512,6.875,18.691,8.809,20.41,24.062,22.129v6.016h-53.066ZM345.893,521.436c-6.875,18.477-14.18,38.027-20.625,55h40.176l-19.551-55Z"/>
      <path class="cls-5" d="M522.926,529.815c-1.934-6.016-3.652-11.172-6.66-15.898-4.082-7.305-7.305-9.023-19.336-9.023h-22.988c-6.23,0-6.875.645-6.875,6.875v49.629h26.641c15.469,0,16.543-2.578,19.766-17.617h6.445v44.902h-6.66c-2.793-15.039-4.297-18.477-19.551-18.477h-26.641v38.457c0,18.691,2.148,19.551,21.699,21.27v6.016h-59.727v-6.016c17.402-1.289,19.336-2.793,19.336-21.27v-85.078c0-18.691-2.148-19.551-19.336-21.27v-6.016h68.105c19.336,0,26.641-.215,30.293-.43.215,7.734,1.074,22.773,2.148,33.086l-6.66.859Z"/>
      <path class="cls-5" d="M547.85,635.948v-6.016c17.617-1.934,19.336-2.793,19.336-21.055v-85.293c0-18.477-1.719-19.336-19.336-21.27v-6.016h57.578v6.016c-17.832,1.934-19.551,2.793-19.551,21.27v85.293c0,18.477,1.719,19.121,19.551,21.055v6.016h-57.578Z"/>
      <path class="cls-5" d="M627.126,496.299h57.363v6.016c-16.758,1.504-19.766,3.008-19.766,22.129v36.953c4.297-.43,9.238-3.867,15.469-9.883,12.032-11.387,26.426-25.996,36.309-37.168,6.445-7.305,5.801-10.098-3.438-11.387l-6.016-.645v-6.016h52.207v6.016c-16.113,1.934-21.699,3.008-36.094,17.832-6.445,6.23-23.203,22.559-36.954,36.094,16.329,19.336,40.176,46.836,51.348,58.652,10.957,11.816,13.75,13.535,27.07,15.039v6.016h-34.375c-16.543-18.691-33.945-39.531-53.497-62.305-4.941-6.016-8.594-6.445-12.031-6.23v40.82c0,18.691,1.934,20.195,19.766,21.699v6.016h-57.363v-6.016c17.617-1.504,19.336-3.008,19.336-21.699v-83.789c0-19.336-1.504-20.84-19.336-22.129v-6.016Z"/>
      <path class="cls-5" d="M852.713,528.956c-3.652-14.18-9.668-28.145-29.863-28.145-16.758,0-22.559,12.246-22.559,23.418,0,14.824,9.453,22.344,27.285,31.582,25.781,13.32,36.953,23.203,36.953,43.613,0,22.559-19.551,39.746-47.266,39.746-12.891,0-24.062-3.652-32.871-7.09-1.719-6.016-4.297-20.625-5.801-32.227l6.66-1.719c4.297,14.395,13.75,33.086,36.094,33.086,15.469,0,24.922-10.742,24.922-24.707,0-16.543-8.809-23.203-27.715-33.516-22.559-12.246-35.234-22.559-35.234-42.539,0-19.121,15.898-37.168,44.258-37.168,12.031,0,23.848,3.223,28.359,4.082.859,7.734,1.719,16.328,3.438,30.293l-6.66,1.289Z"/>
      <path class="cls-5" d="M883.007,496.299h57.363v6.016c-16.758,1.504-19.766,3.008-19.766,22.129v36.953c4.297-.43,9.238-3.867,15.469-9.883,12.031-11.387,26.426-25.996,36.309-37.168,6.445-7.305,5.801-10.098-3.438-11.387l-6.016-.645v-6.016h52.207v6.016c-16.113,1.934-21.699,3.008-36.094,17.832-6.445,6.23-23.203,22.559-36.953,36.094,16.328,19.336,40.176,46.836,51.348,58.652,10.957,11.816,13.75,13.535,27.07,15.039v6.016h-34.375c-16.543-18.691-33.945-39.531-53.496-62.305-4.941-6.016-8.594-6.445-12.031-6.23v40.82c0,18.691,1.934,20.195,19.766,21.699v6.016h-57.363v-6.016c17.617-1.504,19.336-3.008,19.336-21.699v-83.789c0-19.336-1.504-20.84-19.336-22.129v-6.016Z"/>
      <path class="cls-5" d="M1281.327,600.284c-1.289,6.66-7.734,29.004-9.883,35.664h-99.902v-6.016c19.551-1.934,21.27-3.008,21.27-21.27v-85.293c0-18.262-2.148-19.336-19.336-21.055v-6.016h57.578v6.016c-17.188,1.719-19.551,2.578-19.551,21.055v87.441c0,13.105,1.719,16.113,13.965,16.328.215,0,15.684.215,16.973.215,10.957,0,14.18-1.289,19.121-6.66,5.371-5.586,9.883-14.18,13.105-22.129l6.66,1.719Z"/>
      <path class="cls-5" d="M1381.23,635.948v-6.016c13.965-1.719,15.684-3.867,12.676-12.031-2.793-8.379-7.09-19.121-11.602-32.656h-46.406c-3.438,9.668-6.66,18.047-9.668,26.855-4.727,13.965-1.719,15.684,15.898,17.832v6.016h-49.629v-6.016c13.535-1.719,16.973-3.223,24.492-22.559l44.473-112.793,6.875-1.289c13.535,36.738,28.359,77.344,41.895,114.512,6.875,18.691,8.809,20.41,24.062,22.129v6.016h-53.066ZM1359.746,521.436c-6.875,18.477-14.18,38.027-20.625,55h40.176l-19.551-55Z"/>
    </g>
  </g>
  <g id="Layer_2" data-name="Layer 2">
    <g class="cls-1">
      <path class="cls-4" d="M1086.435,550.605c-8.084,0-14.658,6.575-14.658,14.658s6.575,14.658,14.658,14.658,14.658-6.575,14.658-14.658-6.575-14.658-14.658-14.658ZM1145.646,583.302c-5.624,18.427-19.632,33.228-37.558,39.945-5.951,2.229-12.295-2.171-12.295-8.526v-17.203c0-6.101,2.475-11.91,6.771-16.241.127-.127.254-.258.377-.385,3.615-3.822,8.492-6.201,13.708-6.867l19.151-2.437c6.563-.835,11.779,5.385,9.847,11.714ZM1069.371,565.264c0-9.408,7.656-17.064,17.064-17.064s17.064,7.656,17.064,17.064-7.656,17.064-17.064,17.064-17.064-7.656-17.064-17.064ZM1076.908,614.659c0,6.363-6.367,10.767-12.318,8.515-17.834-6.748-31.765-21.514-37.366-39.876-1.932-6.328,3.287-12.545,9.851-11.71l19.197,2.444c5.216.662,10.066,3.072,13.685,6.883.085.089.169.177.254.262,4.242,4.327,6.698,10.093,6.698,16.148v17.334ZM1030.022,539.815c9.724-21.468,31.349-36.442,56.413-36.442s46.689,14.974,56.413,36.442c2.521,5.566-1.101,11.979-7.16,12.749l-22.469,2.86c-3.264.416-6.509-.951-8.457-3.603-4.134-5.632-10.801-9.285-18.327-9.285s-14.193,3.653-18.327,9.285c-1.948,2.652-5.193,4.019-8.457,3.603l-22.469-2.86c-6.059-.77-9.681-7.183-7.16-12.749ZM1154.534,536.493c-3.722-8.8-9.054-16.702-15.836-23.489-6.786-6.786-14.689-12.114-23.493-15.836-9.115-3.857-18.797-5.813-28.77-5.813s-19.655,1.955-28.77,5.813c-8.8,3.722-16.706,9.05-23.489,15.836-6.786,6.786-12.114,14.689-15.84,23.489-3.853,9.115-5.809,18.797-5.809,28.77s1.955,19.655,5.809,28.77c3.726,8.804,9.054,16.706,15.84,23.493,6.783,6.786,14.689,12.114,23.489,15.836,9.115,3.857,18.797,5.809,28.77,5.809s19.655-1.952,28.77-5.809c8.804-3.722,16.706-9.05,23.493-15.836,6.783-6.786,12.114-14.689,15.836-23.493,3.853-9.115,5.809-18.793,5.809-28.77s-1.955-19.655-5.809-28.77"/>
    </g>
  </g>
</svg>